<?xml version="1.0" encoding="UTF-8"?>
<svg id="Layer_1" data-name="Layer 1" xmlns="http://www.w3.org/2000/svg" xmlns:xlink="http://www.w3.org/1999/xlink" viewBox="0 0 1080 1080">
  <defs>
    <style>
      .cls-1 {
        fill: url(#linear-gradient);
      }

      .cls-1, .cls-2, .cls-3, .cls-4, .cls-5 {
        stroke-width: 0px;
      }

      .cls-2 {
        fill: #000;
      }

      .cls-3 {
        fill: none;
      }

      .cls-6 {
        clip-path: url(#clippath-1);
      }

      .cls-4 {
        fill: url(#linear-gradient-2);
      }

      .cls-5 {
        fill: #010101;
      }

      .cls-7 {
        clip-path: url(#clippath);
      }
    </style>
    <clipPath id="clippath">
      <circle class="cls-3" cx="540" cy="452.64" r="319.84"/>
    </clipPath>
    <linearGradient id="linear-gradient" x1="817.19" y1="736.84" x2="-186.84" y2="-292.59" gradientUnits="userSpaceOnUse">
      <stop offset="0" stop-color="#6d4e30"/>
      <stop offset=".08" stop-color="#785a39"/>
      <stop offset=".24" stop-color="#987a53"/>
      <stop offset=".44" stop-color="#cbae7c"/>
      <stop offset=".59" stop-color="#f4d89e"/>
    </linearGradient>
    <clipPath id="clippath-1">
      <rect class="cls-3" x="164.09" y="39.04" width="751.82" height="751.82"/>
    </clipPath>
    <linearGradient id="linear-gradient-2" x1="195.84" y1="880.43" x2="851.15" y2="877.62" gradientUnits="userSpaceOnUse">
      <stop offset="0" stop-color="#6d4e30"/>
      <stop offset=".08" stop-color="#705132"/>
      <stop offset=".15" stop-color="#7a5d3a"/>
      <stop offset=".22" stop-color="#8b7148"/>
      <stop offset=".29" stop-color="#a38c5c"/>
      <stop offset=".36" stop-color="#c1af74"/>
      <stop offset=".43" stop-color="#e7da93"/>
      <stop offset=".71" stop-color="#e7da93"/>
      <stop offset=".72" stop-color="#ddce8b"/>
      <stop offset=".76" stop-color="#bba76f"/>
      <stop offset=".8" stop-color="#9e8758"/>
      <stop offset=".85" stop-color="#886e46"/>
      <stop offset=".89" stop-color="#795c39"/>
      <stop offset=".94" stop-color="#705132"/>
      <stop offset="1" stop-color="#6d4e30"/>
    </linearGradient>
  </defs>
  <g class="cls-7">
    <circle class="cls-1" cx="540" cy="452.64" r="319.84"/>
    <g class="cls-6">
      <path class="cls-2" d="M709.21,795.71l-12.03-70.67c.77-5.77.45-11.54,1.42-13.61.07-.14.14-.31.23-.52,0,0,0,0,0-.01.09-.2.18-.43.28-.69,2.83-7.06,12.18-34.7,12.18-37.03,0-2.51,4.31-11.24,14.61-17.57,10.3-6.34,9.82-11.97,9.82-11.97,0,0-.48-7.52,0-10.39.48-2.87,12.93-14.82,15.33-18.65,2.4-3.82-5.75-11-11.98-13.39-6.23-2.39-36.73,4.62-42.16,4.94-5.43.32-38.32,11.32-51.58,15.3-8.68,2.61-13.38,5.93-21.56,8.52-.38-.5-.91-1.01-1.64-1.52-3.11-2.15-6.31,0-6.31,0-2.48-2.87-4.31-13.07-4.79-19.92-.48-6.85.72-20,1.2-23.59.48-3.59,2.63-10.28,4.23-10.2s1.52,2.95,1.52,2.95c2.32-3.98,2.48-15.46,4.15-17.37,1.68-1.91,4.15.8,4.15.8,1.68-3.35,1.12-19.12,1.76-19.68.64-.56,6.55,1.91,6.55,1.91,0,0-2.71-4.14-2.87-5.1-.16-.96,3.43,0,3.43,0,0,0,.8-8.61,1.84-9.16,1.04-.56,3.51,6.3,3.51,6.3,0,0,1.68-7.49,2.48-7.09.8.4,2.32,5.5,2.32,5.5,0,0-.48-9,.56-9.56,1.04-.56,3.19,4.38,3.19,4.38,0,0,2.4-4.38,2.95-8.53.56-4.14.08-8.85.08-8.85,0,0-2.16-1.43-2.4-2.63s5.19-1.27,5.19-1.27c0,0-2.48-5.42-1.44-5.58,1.04-.16,4.79,1.83,4.79,1.83,1.04-2.31-.08-18.25,1.52-18.17s5.03-.4,5.03-.4c-.96-1.83-3.03-8.37-3.03-8.37,1.12.32,3.27,0,3.27,0-2.48-3.75-2.95-10.84-2.95-10.84,1.76.72,4.47.32,4.47.32-2.32-1.99-4.95-7.57-4.71-9.56.24-1.99,2.79-5.98,3.35-7.01.56-1.04-.72-5.26-.24-6.53.48-1.27,3.83,1.28,3.83,1.28,0,0-2.71-7.65-3.91-8.77s-4.95-5.66-4.87-7.49c.08-1.83,3.57-2.15,3.57-2.15,0,0-3.57-4.94-4.04-5.5-.48-.56-.32-3.59,0-6.45.32-2.87,3.51-9.32,4.2-11.24.25-.69.27-3.68.21-7.31-.07-3.86-.23-8.43-.31-11.75,0-.07,0-.14,0-.21,0-.17,0-.34-.01-.5,0-.14,0-.28,0-.41,0-.13,0-.27,0-.39,0-.18,0-.36,0-.53,0-.07,0-.15,0-.22,0-.23,0-.45,0-.66,0-.06,0-.11,0-.17,0-.14,0-.28,0-.4,0-.06,0-.11,0-.16,0-.11,0-.21,0-.3,0-.04,0-.08,0-.12,0-.11.01-.21.02-.28.24-1.91,5.51-8.69,4.07-12.51-1.44-3.82-4.31-5.1-5.43-5.26-1.12-.16-2.71,1.43-2.71,1.43,0,0,.16-4.54-.88-7.89-1.04-3.35-8.22-9.32-10.14-8.85-.13.03-.3.13-.49.26-.06.04-.12.1-.19.15-.14.11-.29.24-.45.4-.08.07-.16.16-.24.24-.17.18-.35.37-.54.59-.08.09-.15.17-.23.27-.24.29-.5.6-.76.94-.03.04-.06.07-.08.11-.64.82-1.33,1.78-2.03,2.82-.01.02-.03.04-.04.07-.34.5-.68,1.02-1.02,1.55-.02.04-.05.07-.07.11-.35.55-.7,1.11-1.05,1.68-1.87,3.06-3.62,6.36-4.62,9-2.55,6.69-10.7,12.67-12.54,13.63-1.49.78-6.36,3.87-9.2,8.16h0c-.29.44-.55.89-.79,1.35-.06.12-.12.23-.18.35-.23.47-.44.95-.61,1.45-2,5.9-7.43,14.66-7.82,15.06-.4.4-1.44,1.43-5.91,5.34-4.47,3.9-12.46,12.43-10.7,13.95,1.76,1.51,9.1-.08,9.1-.08,0,0,.48,3.9-.24,5.18-.72,1.28-.16,2.63-1.28,4.3-1.12,1.67-3.83,3.19-5.75,4.86-1.92,1.67-7.19,2.87-7.19,2.87,0,0,.64.56.64,1.2s-5.67,3.19-5.67,3.19c0,0,.48.64.88,1.2.4.56-9.18,4.3-10.46,5.1-1.28.8-3.19,3.98-3.19,3.98.32-.8,3.43-1.59,3.67-1.2.24.4-3.59,7.65-4.23,8.21-.64.56-2.95.4-4.39,1.43-1.44,1.04-2.87,1.51-6.71,1.67-3.83.16-9.66,1.04-9.66,1.04,0,0,3.75.96,3.51,1.91-.24.96-9.78,4.1-13.41,9.24-.89,1.26-1.78,2.52-2.7,3.75h0c-4.24,5.72-8.94,10.89-15.9,12.82-1.19.33-5.42,1.03-10.55,1.92-.55.1-1.12.19-1.69.3-.05,0-.1.02-.15.03-.55.1-1.1.19-1.66.29-.06.01-.12.02-.17.03-.59.11-1.19.21-1.78.32-.08.02-.17.03-.25.05-.5.09-1,.18-1.5.28-.15.03-.29.05-.44.08-.46.09-.93.17-1.39.26-.13.03-.27.05-.4.08-.58.11-1.17.23-1.74.34-.02,0-.04,0-.06.01-.53.11-1.06.21-1.58.32-.16.03-.32.07-.48.1-.39.08-.78.17-1.17.25-.16.04-.33.07-.49.11-.44.1-.86.19-1.28.29-.08.02-.17.04-.25.06-.49.11-.96.23-1.41.34-.13.03-.25.06-.38.1-.33.08-.65.17-.96.25-.14.04-.28.07-.41.11-.31.08-.6.17-.88.25-.1.03-.21.06-.31.09-.37.11-.71.22-1.03.33-.07.02-.12.05-.19.07-.25.09-.48.17-.69.26-.09.04-.17.07-.25.11-.18.08-.35.15-.5.23-.06.03-.13.06-.19.1-.19.11-.36.21-.49.31-3.51,2.79-9.26,9.88-12.3,12.11-3.03,2.23-20.6,8.29-28.26,13.39-7.67,5.1-25.55,37.21-27.71,40.64-.15.24-.33.47-.54.7-.07.08-.15.15-.22.23-.15.16-.31.31-.48.46-.1.09-.2.17-.3.26-.17.14-.35.28-.53.42-.11.08-.22.17-.34.25-.2.14-.41.29-.63.43-.11.07-.21.14-.32.21-.27.17-.56.34-.84.51-.05.03-.1.06-.15.09-.72.41-1.46.8-2.18,1.14,0,0,0,0,0,0-2.39,1.16-4.48,1.92-4.48,1.92.72,2.71,3.59,3.11,3.59,3.11-1.76,4.94-18.04,9.72-21.8,9.32-3.75-.4-11.9,3.9-16.93,2.87-5.03-1.04-10.94-4.86-10.94-4.86l-.08,2.87c-4.71.24-10.22-3.11-10.22-3.11-.88,3.67,3.59,6.93,4.39,9.16.8,2.23,0,3.67,0,3.67,1.04,1.75,4.63,2.47,4.63,2.47,0,.88-2.55,2.31-2.55,2.31.72.96,7.19,3.03,7.19,3.03-.72.96-2.48,2.07-2.48,2.07,4.63,2.71,11.1,1.67,11.1,1.67-.24,1.99-1.52,3.51-1.52,3.51l4.55.24,1.92,3.9,6.39-1.51-1.12,2.95s9.26-6.61,9.98-4.94c.72,1.67,0,4.7,0,4.7,3.43-.64,9.5-6.22,10.06-5.9.56.32-1.2,5.98-1.2,5.98,0,0,7.59-6.37,8.62-6.37s2.56,5.26,2.56,5.26c0,0,6.31-8.45,7.27-9.08.96-.64,1.04,2.95,1.04,2.95,0,0,6.71-7.09,7.82-7.65,1.12-.56.96,2.47,2,1.51.2-.18.65-.65,1.27-1.29.04-.05.1-.1.14-.15.2-.21.41-.43.64-.66.14-.14.28-.29.42-.44.09-.1.19-.2.29-.3.15-.15.3-.31.45-.47.1-.1.2-.2.3-.3.18-.19.36-.37.55-.56.07-.07.14-.15.21-.22.25-.26.51-.52.77-.77.06-.06.12-.12.18-.18.2-.2.4-.39.59-.59.08-.08.16-.16.24-.23.17-.17.35-.33.51-.49.08-.08.17-.16.25-.24.18-.16.34-.32.51-.47.06-.06.13-.12.19-.17.22-.2.43-.38.63-.55.03-.03.06-.04.09-.07.16-.13.32-.26.46-.36.06-.04.1-.07.16-.11.11-.08.21-.14.3-.19.05-.03.09-.05.14-.07.08-.04.15-.07.21-.08.03,0,.06-.02.09-.02.08,0,.14.01.16.07.03.06.04.16.04.27,0,.04,0,.09,0,.13,0,.09,0,.19-.02.3,0,.07-.02.14-.03.21-.02.11-.04.23-.06.36-.02.09-.04.19-.06.29-.03.13-.06.26-.09.4-.03.12-.05.23-.09.36-.03.13-.07.26-.11.4-.24.91-.57,1.97-.97,3.09-.01.03-.02.06-.03.09-.11.3-.22.61-.33.91,0,.02-.01.03-.02.05-.73,1.95-1.62,3.95-2.53,5.54,0,0,0,0,0,0-.43.75-.87,1.41-1.29,1.93-2.87,3.43-12.14,9.25-13.74,11.96-1.6,2.71-1.55,19.63-3.98,30.99-.79,3.67-4.19,11.46-6.95,17.9-.25.57-.49,1.13-.72,1.68-.09.21-.17.4-.26.6-.26.6-.5,1.18-.73,1.74-.14.32-.27.65-.4.96-.09.22-.17.43-.26.64-.12.29-.23.58-.34.85-.08.19-.14.37-.21.56-.1.26-.19.5-.27.73-.06.16-.11.31-.16.45-.08.23-.14.43-.2.62-.03.1-.06.21-.09.3-.07.26-.11.48-.12.63-.01.22,0,.49.03.78l-124.52,124.7c-1.65,33.39-4.41,57.86-8.87,61.5-15.89,12.98-72.24,30.28-72.24,30.28,0,0-30.34,40.38-52.01,49.03-21.67,8.65-59.24,40.38-59.24,40.38l651.8-41.1c-3.8-9.12-8.97-24.6-16.07-49.75-16.96-60.08-18.49-80.93-11.6-101.02ZM470.12,633.81c-.09.38-.21.71-.35,1.01-.03.06-.05.11-.08.16-.14.28-.31.53-.49.75-.02.03-.05.05-.07.08-.4.46-.88.79-1.39,1.03h0c-.24.12-.48.22-.73.31-1.36.48-8.86,3.19-8.86,3.19,0,0,2.32.16,3.03,1.51.72,1.35-2.48,9.72-2.48,9.72l2.95-2.63c3.91,5.02,3.99,21.36,3.99,24.14,0,1.72.43,3.9.91,5.56-3.56.74-6,1.22-6.53,1.22-2.4,0-2.63,0-15.57,7.41-3.46,1.98-8.49,3.7-13.99,5.16-1.35-.35-2.64-.62-3.47-.87-2.4-.72-3.26-4.17-5.03-12.99-.64-3.19,11.1-25.98,11.98-27.41.88-1.43,4.55-14.1,6.63-16.73,1.45-1.84,14.84-10.97,23.2-15.91.05-.03.11-.06.16-.1,1.11-.65,2.12-1.23,3.01-1.7.07-.04.14-.07.2-.11.42-.22.81-.42,1.15-.59.05-.02.09-.04.13-.06.31-.15.59-.27.84-.37.04-.02.09-.04.13-.05.25-.09.45-.15.62-.19.04,0,.07,0,.1-.01.15-.02.27-.02.33.04,1.2,1.2.16,16.34-.32,18.41ZM553.58,650.59c-1.6,2.09-4.14,2.68-4.88,2.6-3.07,1.58-5.92,2.84-8.42,3.26-8.62,1.43-21.8,13.63-28.98,13.63-2.2,0-7.63.92-14.16,2.19-.39-1.31-1.02-2.59-1.77-3.47-1.76-2.07-9.1-.48-11.1-3.67-2-3.19-1.68-14.18-.8-17.77.88-3.59,6.31-8.61,15.09-14.66.03-.02.05-.04.08-.06,8.09-5.6,13.53-12.67,16.18-16.28.21-.29.41-.56.59-.8,2.4-3.27,5.83-22.79,7.59-29.56,1.76-6.77,11.18-14.74,11.26-12.51.08,2.23-2.46,4.28-2.46,4.28,3.59.66,5.97-.62,5.97-.62l-1.18,3.96,7.41-3.33c-.56,1.67.07,3.22.07,3.22,1.68-3.82,10.79-6.76,10.79-6.76,0,0,.01.22.03.6.02.3.04.7.07,1.19,0,.07,0,.15.01.23.03.58.07,1.26.12,2.04,0,0,0,.01,0,.02.04.77.09,1.62.14,2.55,0,.09,0,.17.01.26.02.3.03.6.05.91,0,.06,0,.13.01.19.38,6.83.89,16.64,1.14,23.74,0,0,0,.01,0,.02.15,4.32.21,7.64.09,8.65-.4,3.19-1.05,10.69-1.04,14,0,.3,0,.56.02.78,0,.04,0,.07,0,.11.01.22.03.41.06.53.02.07.05.19.1.32.02.05.04.1.06.16.04.1.08.21.13.33.03.08.07.16.1.25.05.11.1.24.16.37.05.11.09.22.15.34.04.09.09.2.13.3.27.61.59,1.31.95,2.09,0,.02.01.03.02.05.14.29.28.59.42.9,1.79,3.78,4.19,8.58,5.46,10.73-3.3,1.31-6.56,3.02-9.66,4.7ZM585.46,640.02c-.58-.17-1.14-.32-1.64-.51-2.52-.96-4.07-2.63-5.75-4.9-1.68-2.27-3.83-3.94-3.35-9.56.32-3.8,1.27-22.77,1.94-35.56.01-.19.02-.38.03-.56.02-.36.04-.7.06-1.05,0-.06,0-.12,0-.18.02-.33.04-.65.05-.97.01-.2.02-.39.03-.58.02-.37.04-.73.06-1.08.02-.29.03-.58.05-.86.01-.19.02-.36.03-.54.01-.21.02-.41.03-.61.01-.2.02-.4.03-.59.02-.3.03-.58.05-.86,0-.13.01-.25.02-.37.02-.26.03-.51.04-.74,0-.1.01-.19.02-.29.01-.22.03-.43.04-.63,0-.06,0-.14.01-.2.02-.25.03-.47.05-.67,0-.04,0-.07,0-.11.01-.16.02-.3.03-.42,0-.04,0-.09.01-.13.01-.13.02-.25.03-.33.32-2.87,1.6-6.77,1.84-4.22.24,2.55,1.7,3.86,1.7,3.86,1.36-2.54,3.03-4.29,3.49-3.86,1.36,1.24,3.57,5.12,3.57,5.12.1-.53.21-1.03.31-1.52.04-.18.08-.34.12-.51.07-.3.14-.6.21-.89.05-.2.1-.39.16-.58.06-.23.13-.47.19-.69.06-.21.12-.41.18-.61.06-.18.11-.36.17-.53.07-.21.14-.41.21-.61.05-.14.1-.27.14-.4.08-.21.16-.42.23-.62.04-.09.07-.18.11-.27.09-.22.18-.42.26-.62.02-.05.04-.09.06-.14,1.21-2.66,2.3-3.52,2.44-2.95.24.96-1.12,9.48-.8,12.99.32,3.51,3.27,17.29,3.43,21.75.16,4.46.24,23.03.4,24.7.12,1.21,2.58,5.1,4.32,7.15-7.24,1.48-11.23,3.79-14.66,5.75Z"/>
    </g>
    <g>
      <ellipse class="cls-5" cx="238.42" cy="460.05" rx="74.39" ry="4.96"/>
      <ellipse class="cls-5" cx="720.5" cy="231.91" rx="74.39" ry="4.96"/>
      <ellipse class="cls-5" cx="843.5" cy="442.19" rx="74.39" ry="4.96"/>
      <ellipse class="cls-5" cx="369.36" cy="235.87" rx="74.39" ry="4.96"/>
      <ellipse class="cls-5" cx="355.47" cy="210.08" rx="74.39" ry="4.96"/>
      <ellipse class="cls-5" cx="349.52" cy="308.28" rx="112.09" ry="1.98"/>
      <ellipse class="cls-5" cx="313.81" cy="392.6" rx="122.01" ry="2.98"/>
      <ellipse class="cls-5" cx="774.06" cy="412.44" rx="74.39" ry="4.96"/>
    </g>
  </g>
  <path class="cls-4" d="M829.34,947.2h-28.02l-15.67-27.14-16.48-28.57-14.85-25.71-2.63-4.56-2.63,4.56-14.84,25.71-16.5,28.57-15.67,27.14h-51.17v-55.7h-47.13v55.7h-31.42v-53.77c-.39.41-.77.81-1.16,1.2-8.67,8.66-20.62,14.01-33.84,14.01h-32.14v38.56h-128.9l-15.65-27.14-6.6-11.43-9.9-17.14-4.13-7.14-10.71-18.57-1.81-3.13-1.8,3.13-10.73,18.57-4.11,7.14-16.5,28.57-15.67,27.14h-28.02l15.67-27.14,16.5-28.57,4.11-7.14,10.73-18.57,15.67-27.14h.3l-.16-.26,14.01-24.27,14.01,24.27-.14.26h.3l15.67,27.14,10.71,18.57,4.13,7.14,9.9,17.14,6.6,11.43,7.98,13.84v-123.82h31.42v109.98h47.13v-35.71h54.27c6.31,0,12.03-2.56,16.17-6.68,3.17-3.19,5.41-7.28,6.28-11.88.26-1.39.4-2.83.4-4.28,0-12.63-10.23-22.85-22.85-22.85h-54.27v-25.71h62.13c13.81,0,26.25,5.86,34.99,15.21v-15.21h31.42v52.85h47.13v-14.28h31.42v81.38l7.4-12.83,16.5-28.57,14.84-25.71,16.64-28.82,14.01-24.27,14.01,24.27,16.64,28.82,14.85,25.71,16.48,28.57,15.67,27.14Z"/>
</svg>